<?xml version="1.0" encoding="UTF-8" standalone="no"?>
<svg
   version="1.1"
   id="Warstwa_1"
   x="0px"
   y="0px"
   viewBox="0 0 600.65999 325.59996"
   width="600.65997"
   height="325.59998"
   sodipodi:docname="cricket-logo-no-text.svg"
   inkscape:version="1.2.2 (732a01da63, 2022-12-09, custom)"
   xmlns:inkscape="http://www.inkscape.org/namespaces/inkscape"
   xmlns:sodipodi="http://sodipodi.sourceforge.net/DTD/sodipodi-0.dtd"
   xmlns="http://www.w3.org/2000/svg"
   xmlns:svg="http://www.w3.org/2000/svg">
  <sodipodi:namedview
     id="namedview2293"
     pagecolor="#ffffff"
     bordercolor="#000000"
     borderopacity="0.25"
     inkscape:showpageshadow="2"
     inkscape:pageopacity="0.0"
     inkscape:pagecheckerboard="0"
     inkscape:deskcolor="#d1d1d1"
     showgrid="false"
     inkscape:zoom="0.72481578"
     inkscape:cx="300.76608"
     inkscape:cy="164.86948"
     inkscape:window-width="1440"
     inkscape:window-height="836"
     inkscape:window-x="0"
     inkscape:window-y="0"
     inkscape:window-maximized="1"
     inkscape:current-layer="Warstwa_1" />
  <defs
     id="defs105" />
  <style
     type="text/css"
     id="style2">
	.st0{fill:#0606FC;}
	.st1{fill:none;stroke:#0606FC;stroke-width:15;stroke-miterlimit:10;}
</style>
  <g
     id="g100"
     transform="translate(-376.63,-465.95)">
    <g
       id="g72">
      <path
         class="st0"
         d="m 501.73,701.14 -19.43,-43.84 18.44,-38.56 20.39,37.89 z m -9.22,-43.69 9.15,20.65 9.17,-21.04 -9.6,-17.84 z"
         id="path70"
         style="fill:#0606fc" />
    </g>
    <g
       id="g76">
      <path
         class="st1"
         d="M 540.7,603.84"
         id="path74"
         style="fill:none;stroke:#0606fc;stroke-width:15;stroke-miterlimit:10" />
    </g>
    <g
       id="g80">
      <path
         class="st1"
         d="M 731.78,642.23"
         id="path78"
         style="fill:none;stroke:#0606fc;stroke-width:15;stroke-miterlimit:10" />
    </g>
    <g
       id="g84">
      <path
         class="st1"
         d="M 706.03,564.39"
         id="path82"
         style="fill:none;stroke:#0606fc;stroke-width:15;stroke-miterlimit:10" />
    </g>
    <g
       id="g88">
      <path
         class="st1"
         d="M 952.66,598.5"
         id="path86"
         style="fill:none;stroke:#0606fc;stroke-width:15;stroke-miterlimit:10" />
    </g>
    <g
       id="g92">
      <path
         class="st1"
         d="M 481.91,603.84"
         id="path90"
         style="fill:none;stroke:#0606fc;stroke-width:15;stroke-miterlimit:10" />
    </g>
    <path
       class="st0"
       d="m 875.65,728.86 -32.36,-53.19 134,-58.37 -17.55,-77.61 -70.04,-16.63 -115.95,38.35 -0.54,-0.88 -0.03,-0.05 -0.07,-0.12 c -0.03,-0.05 -0.47,-0.77 -1.19,-1.95 l -17.21,-28.29 -0.51,-0.82 -0.04,0.02 c -1.16,-1.84 -3.24,-2.93 -5.43,-2.85 -2.19,0.08 -4.12,1.31 -5.14,3.29 l -17.93,34.72 c -14.29,-29.23 -14.39,-29.4 -14.55,-29.66 -1.16,-1.88 -3.25,-2.99 -5.47,-2.91 -2.19,0.08 -4.11,1.31 -5.12,3.27 l -16.6,31.68 -10.83,-3.71 -118.49,41.07 -9.3,-25.09 -55.91,17.49 13.99,-37.06 251.35,-65.02 1.38,-0.36 19.49,-22.09 -6.95,-6.14 -17.61,19.96 -252.3,65.27 -2.33,0.6 -18.76,49.7 -22.9,58.33 20.57,47.19 -66.78,47.17 h -31.91 v 9.27 h 34.86 l 67.62,-47.76 10.99,25.22 52.97,17.62 10.57,-30.29 40.71,12.51 -43.58,41.54 h -31.53 v 9.27 h 35.24 l 51.23,-48.84 51.71,-16.83 8.37,18.85 35.94,-15.68 9.66,-22.39 31.02,12.92 21.44,-9.34 17.1,28.09 h 48.47 v -9.27 h -43.26 l -13.73,-22.56 62.28,-27.13 33.05,54.3 13.93,22.03 h 51.6 v -9.27 h -46.5 z M 705.84,545.05 c 3.82,7.81 10.65,21.77 14.53,29.71 l -2.02,3.91 -25.55,-8.75 z m -168.52,201.81 -40.37,-13.43 -32.15,-73.76 20.61,-52.07 54.26,-16.97 26.87,72.47 z m 116.32,-29.47 -50.41,16.41 -46.54,-14.31 19.7,-56.48 -18.56,-50.07 115.29,-39.96 40.94,14.02 -12.49,24.17 -52.26,96.47 z m 51.05,-18.58 -10.02,23.23 -24.13,10.53 -10.89,-24.53 50.11,-92.49 39.51,-76.49 c 3.4,5.57 8.97,14.7 12.69,20.79 l 2.06,3.38 z m 37.63,10.72 -27.24,-11.35 54.81,-125.27 59.94,98.5 z m 36.38,-139.99 111.42,-36.85 61.85,14.69 14.58,64.48 -128.13,55.81 z"
       id="path94"
       style="fill:#0606fc" />
    <g
       id="g98">
      <path
         class="st1"
         d="M 723.61,578.6"
         id="path96"
         style="fill:none;stroke:#0606fc;stroke-width:15;stroke-miterlimit:10" />
    </g>
  </g>
</svg>
