<?xml version="1.0" encoding="UTF-8" standalone="no"?>
<svg
   version="1.1"
   id="Warstwa_1"
   x="0px"
   y="0px"
   viewBox="0 0 650.59005 535.61997"
   width="650.59003"
   height="535.62"
   sodipodi:docname="logo.svg"
   inkscape:version="1.2.2 (732a01da63, 2022-12-09, custom)"
   xmlns:inkscape="http://www.inkscape.org/namespaces/inkscape"
   xmlns:sodipodi="http://sodipodi.sourceforge.net/DTD/sodipodi-0.dtd"
   xmlns="http://www.w3.org/2000/svg"
   xmlns:svg="http://www.w3.org/2000/svg">
  <sodipodi:namedview
     id="namedview48"
     pagecolor="#ffffff"
     bordercolor="#000000"
     borderopacity="0.25"
     inkscape:showpageshadow="2"
     inkscape:pageopacity="0.0"
     inkscape:pagecheckerboard="0"
     inkscape:deskcolor="#d1d1d1"
     showgrid="false"
     inkscape:zoom="0.60092174"
     inkscape:cx="64.068243"
     inkscape:cy="398.55439"
     inkscape:window-width="1440"
     inkscape:window-height="836"
     inkscape:window-x="0"
     inkscape:window-y="0"
     inkscape:window-maximized="1"
     inkscape:current-layer="Warstwa_1" />
  <defs
     id="defs105" />
  <style
     type="text/css"
     id="style2">
	.st0{fill:#0606FC;}
	.st1{fill:none;stroke:#0606FC;stroke-width:15;stroke-miterlimit:10;}
</style>
  <g
     id="g68"
     transform="translate(-361.27,-465.94999)"
     inkscape:export-filename="../79b5ac1a/export.svg"
     inkscape:export-xdpi="96"
     inkscape:export-ydpi="96"
     style="opacity:1;fill:#fcfcfc;fill-opacity:1">
    <path
       class="st0"
       d="m 466.05,962.83 c 0.79,0 1.58,0.15 2.37,0.44 0.79,0.3 1.54,0.81 2.27,1.53 l 13.21,13.9 c -5.78,7.56 -13.03,13.26 -21.74,17.1 -8.71,3.84 -19.01,5.77 -30.9,5.77 -10.91,0 -20.69,-1.86 -29.33,-5.57 -8.64,-3.71 -15.97,-8.84 -21.98,-15.38 -6.01,-6.54 -10.63,-14.29 -13.85,-23.26 -3.22,-8.97 -4.83,-18.71 -4.83,-29.23 0,-10.71 1.84,-20.55 5.52,-29.52 3.68,-8.97 8.82,-16.71 15.43,-23.21 6.6,-6.51 14.51,-11.57 23.71,-15.18 9.2,-3.61 19.35,-5.42 30.46,-5.42 5.39,0 10.46,0.48 15.23,1.43 4.76,0.95 9.22,2.27 13.36,3.94 4.14,1.68 7.95,3.68 11.43,6.01 3.48,2.33 6.57,4.91 9.27,7.74 L 474.44,889 c -0.72,0.92 -1.58,1.76 -2.56,2.51 -0.99,0.76 -2.37,1.13 -4.14,1.13 -1.18,0 -2.3,-0.26 -3.35,-0.79 -1.05,-0.53 -2.17,-1.17 -3.35,-1.92 -1.18,-0.75 -2.48,-1.58 -3.89,-2.46 -1.41,-0.89 -3.09,-1.71 -5.03,-2.46 -1.94,-0.75 -4.21,-1.39 -6.8,-1.92 -2.6,-0.53 -5.64,-0.79 -9.12,-0.79 -6.05,0 -11.57,1.07 -16.56,3.2 -4.99,2.14 -9.28,5.19 -12.86,9.17 -3.58,3.98 -6.37,8.79 -8.38,14.44 -2.01,5.65 -3.01,11.99 -3.01,19.02 0,7.36 1,13.9 3.01,19.62 2,5.72 4.73,10.53 8.18,14.44 3.45,3.91 7.47,6.88 12.08,8.92 4.6,2.04 9.53,3.06 14.79,3.06 3.02,0 5.78,-0.15 8.28,-0.44 2.5,-0.3 4.81,-0.8 6.95,-1.53 2.13,-0.72 4.17,-1.66 6.11,-2.81 1.94,-1.15 3.89,-2.58 5.86,-4.29 0.79,-0.66 1.64,-1.2 2.56,-1.63 0.9,-0.43 1.85,-0.64 2.84,-0.64 z"
       id="path54"
       style="fill:#fcfcfc;fill-opacity:1" />
    <path
       class="st0"
       d="M 499.07,999.99 V 897.77 h 18.14 c 1.51,0 2.78,0.13 3.79,0.39 1.02,0.26 1.87,0.67 2.56,1.23 0.69,0.56 1.22,1.3 1.58,2.22 0.36,0.92 0.67,2.04 0.94,3.35 l 1.68,9.56 c 3.75,-5.78 7.95,-10.35 12.62,-13.7 4.67,-3.35 9.76,-5.03 15.28,-5.03 4.67,0 8.41,1.12 11.24,3.35 l -3.94,22.48 c -0.26,1.38 -0.79,2.35 -1.58,2.91 -0.79,0.56 -1.84,0.84 -3.15,0.84 -1.12,0 -2.43,-0.15 -3.94,-0.44 -1.51,-0.3 -3.42,-0.44 -5.72,-0.44 -8.02,0 -14.33,4.27 -18.93,12.81 v 62.69 z"
       id="path56"
       style="fill:#fcfcfc;fill-opacity:1" />
    <path
       class="st0"
       d="m 615.59,869.77 c 0,2.43 -0.49,4.72 -1.48,6.85 -0.99,2.14 -2.33,4.01 -4.04,5.62 -1.71,1.61 -3.7,2.89 -5.96,3.84 -2.27,0.95 -4.68,1.43 -7.24,1.43 -2.5,0 -4.83,-0.47 -7,-1.43 -2.17,-0.95 -4.09,-2.23 -5.77,-3.84 -1.68,-1.61 -2.99,-3.48 -3.94,-5.62 -0.95,-2.14 -1.43,-4.42 -1.43,-6.85 0,-2.5 0.48,-4.83 1.43,-7 0.95,-2.17 2.27,-4.07 3.94,-5.72 1.68,-1.64 3.6,-2.92 5.77,-3.84 2.17,-0.92 4.5,-1.38 7,-1.38 2.56,0 4.98,0.46 7.24,1.38 2.27,0.92 4.25,2.2 5.96,3.84 1.71,1.64 3.06,3.55 4.04,5.72 0.98,2.17 1.48,4.51 1.48,7 z m -3.55,28 V 999.99 H 581.48 V 897.77 Z"
       id="path58"
       style="fill:#fcfcfc;fill-opacity:1" />
    <path
       class="st0"
       d="m 710.41,922.02 c -0.92,1.12 -1.81,2.01 -2.66,2.66 -0.85,0.66 -2.07,0.99 -3.65,0.99 -1.51,0 -2.88,-0.36 -4.09,-1.08 -1.22,-0.72 -2.58,-1.53 -4.09,-2.42 -1.51,-0.89 -3.29,-1.69 -5.32,-2.42 -2.04,-0.72 -4.57,-1.08 -7.59,-1.08 -3.75,0 -6.98,0.69 -9.71,2.07 -2.73,1.38 -4.98,3.35 -6.75,5.91 -1.77,2.56 -3.09,5.7 -3.94,9.41 -0.85,3.71 -1.28,7.9 -1.28,12.57 0,9.79 1.89,17.32 5.67,22.57 3.78,5.26 8.99,7.89 15.62,7.89 3.55,0 6.36,-0.44 8.43,-1.33 2.07,-0.89 3.83,-1.87 5.27,-2.96 1.44,-1.08 2.78,-2.08 3.99,-3.01 1.22,-0.92 2.74,-1.38 4.58,-1.38 2.43,0 4.27,0.89 5.52,2.66 l 8.87,10.94 c -3.15,3.61 -6.47,6.56 -9.96,8.82 -3.48,2.27 -7.05,4.04 -10.7,5.32 -3.65,1.28 -7.31,2.17 -10.99,2.66 -3.68,0.49 -7.26,0.74 -10.74,0.74 -6.24,0 -12.21,-1.18 -17.89,-3.55 -5.68,-2.37 -10.68,-5.8 -14.98,-10.3 -4.3,-4.5 -7.72,-10.04 -10.25,-16.61 -2.53,-6.57 -3.8,-14.06 -3.8,-22.48 0,-7.36 1.1,-14.24 3.3,-20.65 2.2,-6.41 5.45,-11.96 9.76,-16.66 4.3,-4.7 9.63,-8.39 15.97,-11.09 6.34,-2.69 13.69,-4.04 22.03,-4.04 8.02,0 15.05,1.28 21.09,3.84 6.05,2.56 11.5,6.31 16.36,11.24 z"
       id="path60"
       style="fill:#fcfcfc;fill-opacity:1" />
    <path
       class="st0"
       d="m 763.05,852.42 v 82.7 h 4.53 c 1.91,0 3.37,-0.26 4.39,-0.79 1.02,-0.53 1.99,-1.48 2.91,-2.86 l 19.32,-28.78 c 1.12,-1.71 2.45,-2.96 3.99,-3.75 1.54,-0.79 3.5,-1.18 5.87,-1.18 h 27.99 l -26.42,36.37 c -1.25,1.71 -2.61,3.22 -4.09,4.53 -1.48,1.32 -3.07,2.5 -4.78,3.55 2.96,2.23 5.52,5.19 7.69,8.87 l 28.78,48.89 h -27.6 c -2.3,0 -4.29,-0.38 -5.96,-1.13 -1.68,-0.75 -3.04,-2.09 -4.09,-3.99 l -19.32,-36.18 c -0.92,-1.64 -1.87,-2.71 -2.86,-3.2 -0.99,-0.49 -2.46,-0.74 -4.44,-0.74 h -5.91 v 45.25 H 732.49 V 852.42 Z"
       id="path62"
       style="fill:#fcfcfc;fill-opacity:1" />
    <path
       class="st0"
       d="m 883.9,896.19 c 6.77,0 12.96,1.05 18.58,3.15 5.62,2.1 10.45,5.16 14.49,9.17 4.04,4.01 7.2,8.92 9.46,14.74 2.27,5.82 3.4,12.41 3.4,19.76 0,2.3 -0.1,4.17 -0.3,5.62 -0.2,1.45 -0.56,2.6 -1.08,3.45 -0.53,0.86 -1.23,1.45 -2.12,1.78 -0.89,0.33 -2.02,0.49 -3.4,0.49 h -58.95 c 0.99,8.54 3.58,14.74 7.79,18.58 4.21,3.84 9.63,5.77 16.27,5.77 3.55,0 6.6,-0.43 9.17,-1.28 2.56,-0.85 4.85,-1.81 6.85,-2.86 2,-1.05 3.84,-2 5.52,-2.86 1.68,-0.85 3.43,-1.28 5.27,-1.28 2.43,0 4.27,0.89 5.52,2.66 l 8.87,10.94 c -3.15,3.61 -6.56,6.56 -10.2,8.82 -3.64,2.26 -7.39,4.04 -11.24,5.32 -3.84,1.28 -7.69,2.17 -11.53,2.66 -3.84,0.49 -7.51,0.74 -10.99,0.74 -7.16,0 -13.88,-1.17 -20.16,-3.5 -6.28,-2.33 -11.76,-5.8 -16.46,-10.4 -4.7,-4.6 -8.41,-10.32 -11.14,-17.15 -2.73,-6.83 -4.09,-14.79 -4.09,-23.85 0,-6.83 1.17,-13.31 3.5,-19.42 2.33,-6.11 5.68,-11.47 10.05,-16.07 4.37,-4.6 9.66,-8.25 15.87,-10.94 6.21,-2.69 13.23,-4.04 21.05,-4.04 z m 0.59,21.1 c -5.85,0 -10.42,1.66 -13.7,4.98 -3.29,3.32 -5.46,8.1 -6.51,14.34 h 38.15 c 0,-2.43 -0.31,-4.8 -0.94,-7.1 -0.63,-2.3 -1.64,-4.35 -3.06,-6.16 -1.41,-1.81 -3.27,-3.27 -5.57,-4.39 -2.29,-1.12 -5.08,-1.67 -8.37,-1.67 z"
       id="path64"
       style="fill:#fcfcfc;fill-opacity:1" />
    <path
       class="st0"
       d="m 983.26,1001.57 c -4.86,0 -9.15,-0.71 -12.86,-2.12 -3.71,-1.41 -6.84,-3.42 -9.36,-6.01 -2.53,-2.59 -4.45,-5.73 -5.77,-9.41 -1.32,-3.68 -1.97,-7.79 -1.97,-12.32 v -52.84 h -8.67 c -1.58,0 -2.93,-0.51 -4.04,-1.53 -1.12,-1.02 -1.68,-2.51 -1.68,-4.48 v -11.93 l 16.26,-3.15 6.01,-24.94 c 0.79,-3.15 3.02,-4.73 6.7,-4.73 h 15.97 v 29.87 h 24.84 v 20.9 h -24.84 v 50.77 c 0,2.37 0.57,4.32 1.72,5.86 1.15,1.55 2.81,2.32 4.98,2.32 1.12,0 2.05,-0.11 2.81,-0.34 0.76,-0.23 1.41,-0.49 1.97,-0.79 0.56,-0.3 1.08,-0.56 1.58,-0.79 0.49,-0.23 1.07,-0.35 1.73,-0.35 0.92,0 1.66,0.21 2.22,0.64 0.56,0.43 1.13,1.1 1.73,2.02 l 9.27,14.49 c -3.94,2.96 -8.38,5.17 -13.31,6.65 -4.94,1.47 -10.03,2.21 -15.29,2.21 z"
       id="path66"
       style="fill:#fcfcfc;fill-opacity:1" />
  </g>
  <g
     id="g100"
     transform="translate(-357.27,-465.94999)"
     style="fill:#fcfcfc;fill-opacity:1">
    <g
       id="g72"
       style="fill:#fcfcfc;fill-opacity:1">
      <path
         class="st0"
         d="m 501.73,701.14 -19.43,-43.84 18.44,-38.56 20.39,37.89 z m -9.22,-43.69 9.15,20.65 9.17,-21.04 -9.6,-17.84 z"
         id="path70"
         style="fill:#fcfcfc;fill-opacity:1" />
    </g>
    <g
       id="g76"
       style="fill:#fcfcfc;fill-opacity:1">
      <path
         class="st1"
         d="M 540.7,603.84"
         id="path74"
         style="fill:#fcfcfc;stroke:#0606fc;stroke-width:15;stroke-miterlimit:10;fill-opacity:1" />
    </g>
    <g
       id="g80"
       style="fill:#fcfcfc;fill-opacity:1">
      <path
         class="st1"
         d="M 731.78,642.23"
         id="path78"
         style="fill:#fcfcfc;stroke:#0606fc;stroke-width:15;stroke-miterlimit:10;fill-opacity:1" />
    </g>
    <g
       id="g84"
       style="fill:#fcfcfc;fill-opacity:1">
      <path
         class="st1"
         d="M 706.03,564.39"
         id="path82"
         style="fill:#fcfcfc;stroke:#0606fc;stroke-width:15;stroke-miterlimit:10;fill-opacity:1" />
    </g>
    <g
       id="g88"
       style="fill:#fcfcfc;fill-opacity:1">
      <path
         class="st1"
         d="M 952.66,598.5"
         id="path86"
         style="fill:#fcfcfc;stroke:#0606fc;stroke-width:15;stroke-miterlimit:10;fill-opacity:1" />
    </g>
    <g
       id="g92"
       style="fill:#fcfcfc;fill-opacity:1">
      <path
         class="st1"
         d="M 481.91,603.84"
         id="path90"
         style="fill:#fcfcfc;stroke:#0606fc;stroke-width:15;stroke-miterlimit:10;fill-opacity:1" />
    </g>
    <path
       class="st0"
       d="m 875.65,728.86 -32.36,-53.19 134,-58.37 -17.55,-77.61 -70.04,-16.63 -115.95,38.35 -0.54,-0.88 -0.03,-0.05 -0.07,-0.12 c -0.03,-0.05 -0.47,-0.77 -1.19,-1.95 l -17.21,-28.29 -0.51,-0.82 -0.04,0.02 c -1.16,-1.84 -3.24,-2.93 -5.43,-2.85 -2.19,0.08 -4.12,1.31 -5.14,3.29 l -17.93,34.72 c -14.29,-29.23 -14.39,-29.4 -14.55,-29.66 -1.16,-1.88 -3.25,-2.99 -5.47,-2.91 -2.19,0.08 -4.11,1.31 -5.12,3.27 l -16.6,31.68 -10.83,-3.71 -118.49,41.07 -9.3,-25.09 -55.91,17.49 13.99,-37.06 251.35,-65.02 1.38,-0.36 19.49,-22.09 -6.95,-6.14 -17.61,19.96 -252.3,65.27 -2.33,0.6 -18.76,49.7 -22.9,58.33 20.57,47.19 -66.78,47.17 h -31.91 v 9.27 h 34.86 l 67.62,-47.76 10.99,25.22 52.97,17.62 10.57,-30.29 40.71,12.51 -43.58,41.54 h -31.53 v 9.27 h 35.24 l 51.23,-48.84 51.71,-16.83 8.37,18.85 35.94,-15.68 9.66,-22.39 31.02,12.92 21.44,-9.34 17.1,28.09 h 48.47 v -9.27 h -43.26 l -13.73,-22.56 62.28,-27.13 33.05,54.3 13.93,22.03 h 51.6 v -9.27 h -46.5 z M 705.84,545.05 c 3.82,7.81 10.65,21.77 14.53,29.71 l -2.02,3.91 -25.55,-8.75 z m -168.52,201.81 -40.37,-13.43 -32.15,-73.76 20.61,-52.07 54.26,-16.97 26.87,72.47 z m 116.32,-29.47 -50.41,16.41 -46.54,-14.31 19.7,-56.48 -18.56,-50.07 115.29,-39.96 40.94,14.02 -12.49,24.17 -52.26,96.47 z m 51.05,-18.58 -10.02,23.23 -24.13,10.53 -10.89,-24.53 50.11,-92.49 39.51,-76.49 c 3.4,5.57 8.97,14.7 12.69,20.79 l 2.06,3.38 z m 37.63,10.72 -27.24,-11.35 54.81,-125.27 59.94,98.5 z m 36.38,-139.99 111.42,-36.85 61.85,14.69 14.58,64.48 -128.13,55.81 z"
       id="path94"
       style="fill:#fcfcfc;fill-opacity:1" />
    <g
       id="g98"
       style="fill:#fcfcfc;fill-opacity:1">
      <path
         class="st1"
         d="M 723.61,578.6"
         id="path96"
         style="fill:#fcfcfc;stroke:#0606fc;stroke-width:15;stroke-miterlimit:10;fill-opacity:1" />
    </g>
  </g>
</svg>
